<svg width="320" height="100" viewBox="0 0 320 100" fill="none" xmlns="http://www.w3.org/2000/svg">
<path d="M21 65.8V21H28.552V39.368H28.808C30.0027 37.3627 31.496 35.848 33.288 34.824C35.08 33.8 37.1707 33.288 39.56 33.288C42.0773 33.288 44.232 33.8427 46.024 34.952C47.816 36.0187 49.1813 37.64 50.12 39.816C51.1013 41.9493 51.592 44.5947 51.592 47.752V65.8H43.976V48.52C43.976 45.704 43.4 43.5493 42.248 42.056C41.1387 40.52 39.368 39.752 36.936 39.752C35.4 39.752 33.992 40.136 32.712 40.904C31.432 41.672 30.4293 42.7813 29.704 44.232C29.0213 45.64 28.68 47.368 28.68 49.416V65.8H21Z" fill="white"/>
<path d="M57.929 78.6L63.433 62.216L50.505 34.056H58.825L68.425 55.752H68.681L77.641 34.056H85.769L66.057 78.6H57.929Z" fill="white"/>
<path d="M86.38 78.6V34.056H92.844L93.292 39.816H93.548C94.4013 38.408 95.4253 37.2347 96.62 36.296C97.8147 35.3147 99.1587 34.568 100.652 34.056C102.145 33.544 103.767 33.288 105.516 33.288C108.503 33.288 111.105 34.0133 113.324 35.464C115.585 36.9147 117.313 38.8987 118.508 41.416C119.745 43.8907 120.364 46.728 120.364 49.928C120.364 53.128 119.745 55.9867 118.508 58.504C117.313 60.9787 115.564 62.9413 113.26 64.392C110.999 65.8427 108.268 66.568 105.068 66.568C102.465 66.568 100.225 66.056 98.348 65.032C96.5133 64.008 95.084 62.7707 94.06 61.32V78.6H86.38ZM103.34 60.232C105.217 60.232 106.839 59.8053 108.204 58.952C109.612 58.056 110.7 56.84 111.468 55.304C112.236 53.768 112.62 51.976 112.62 49.928C112.62 47.9227 112.236 46.152 111.468 44.616C110.7 43.08 109.612 41.8853 108.204 41.032C106.839 40.136 105.217 39.688 103.34 39.688C101.463 39.688 99.82 40.136 98.412 41.032C97.004 41.8853 95.916 43.08 95.148 44.616C94.38 46.152 93.996 47.9227 93.996 49.928C93.996 51.976 94.38 53.768 95.148 55.304C95.916 56.84 97.004 58.056 98.412 58.952C99.82 59.8053 101.463 60.232 103.34 60.232Z" fill="white"/>
<path d="M137.298 66.568C134.098 66.568 131.26 65.8853 128.785 64.52C126.353 63.112 124.433 61.192 123.025 58.76C121.66 56.2853 120.978 53.4053 120.978 50.12C120.978 46.792 121.66 43.8693 123.025 41.352C124.391 38.8347 126.289 36.872 128.721 35.464C131.196 34.0133 134.076 33.288 137.362 33.288C140.476 33.288 143.207 33.992 145.553 35.4C147.943 36.7653 149.777 38.6 151.057 40.904C152.38 43.208 153.042 45.8107 153.042 48.712C153.042 49.1387 153.042 49.608 153.042 50.12C153.042 50.632 152.999 51.1867 152.913 51.784H126.546V46.856H145.298C145.169 44.5093 144.359 42.6747 142.866 41.352C141.372 39.9867 139.516 39.304 137.298 39.304C135.719 39.304 134.247 39.6667 132.882 40.392C131.559 41.0747 130.492 42.1413 129.682 43.592C128.914 45 128.53 46.8133 128.53 49.032V50.888C128.53 52.8507 128.914 54.536 129.682 55.944C130.45 57.352 131.495 58.44 132.817 59.208C134.183 59.9333 135.655 60.296 137.233 60.296C138.983 60.296 140.455 59.912 141.649 59.144C142.844 58.3333 143.74 57.2453 144.338 55.88H152.146C151.548 57.928 150.545 59.7627 149.137 61.384C147.772 62.9627 146.087 64.2213 144.081 65.16C142.076 66.0987 139.815 66.568 137.298 66.568Z" fill="white"/>
<path d="M154.315 65.8V34.056H160.907L161.547 40.968H161.803C162.784 38.7493 163.808 37.0853 164.875 35.976C165.984 34.8667 167.243 34.1413 168.651 33.8C170.059 33.4587 171.702 33.288 173.579 33.288V41.352H171.531C169.995 41.352 168.608 41.544 167.371 41.928C166.176 42.312 165.174 42.888 164.363 43.656C163.595 44.3813 162.998 45.3413 162.571 46.536C162.187 47.688 161.995 49.096 161.995 50.76V65.8H154.315Z" fill="white"/>
<path d="M187.768 65.8C185.635 65.8 183.757 65.4587 182.136 64.776C180.515 64.0933 179.256 62.9627 178.36 61.384C177.507 59.8053 177.08 57.672 177.08 54.984V41.352H173.579V33.288H177.08V25.736H184.76V33.288H201.18V41.2998L184.76 41.352V54.984C184.76 56.7333 185.101 57.928 185.784 58.568C186.467 59.208 187.661 59.528 189.368 59.528H193.208V65.8H187.768Z" fill="white"/>
<path d="M205.788 66.568C203.228 66.568 201.031 66.0347 199.196 64.968C197.361 63.8587 195.953 62.2373 194.972 60.104C193.991 57.928 193.5 55.2613 193.5 52.104V34.056H201.18V51.336C201.18 54.152 201.756 56.328 202.908 57.864C204.06 59.3573 205.852 60.104 208.284 60.104C209.863 60.104 211.249 59.72 212.444 58.952C213.681 58.184 214.641 57.096 215.324 55.688C216.049 54.2373 216.412 52.488 216.412 50.44V34.056H224.092V65.8H217.5L216.86 60.744H216.604C215.58 62.536 214.172 63.9653 212.38 65.032C210.631 66.056 208.433 66.568 205.788 66.568Z" fill="white"/>
<path d="M226.635 65.8V34.056H233.227L233.867 39.176H234.123C235.19 37.3413 236.598 35.912 238.347 34.888C240.139 33.8213 242.336 33.288 244.939 33.288C247.499 33.288 249.696 33.8427 251.531 34.952C253.366 36.0187 254.774 37.64 255.755 39.816C256.736 41.9493 257.227 44.5947 257.227 47.752V65.8H249.611V48.52C249.611 45.704 249.014 43.5493 247.819 42.056C246.667 40.52 244.875 39.752 242.443 39.752C240.864 39.752 239.456 40.136 238.219 40.904C237.024 41.672 236.064 42.7813 235.339 44.232C234.656 45.64 234.315 47.368 234.315 49.416V65.8H226.635Z" fill="white"/>
<path d="M274.81 66.568C271.61 66.568 268.773 65.8853 266.298 64.52C263.866 63.112 261.946 61.192 260.538 58.76C259.173 56.2853 258.49 53.4053 258.49 50.12C258.49 46.792 259.173 43.8693 260.538 41.352C261.903 38.8347 263.802 36.872 266.234 35.464C268.709 34.0133 271.589 33.288 274.874 33.288C277.989 33.288 280.719 33.992 283.066 35.4C285.455 36.7653 287.29 38.6 288.57 40.904C289.893 43.208 290.554 45.8107 290.554 48.712C290.554 49.1387 290.554 49.608 290.554 50.12C290.554 50.632 290.511 51.1867 290.426 51.784H264.058V46.856H282.81C282.682 44.5093 281.871 42.6747 280.378 41.352C278.885 39.9867 277.029 39.304 274.81 39.304C273.231 39.304 271.759 39.6667 270.394 40.392C269.071 41.0747 268.005 42.1413 267.194 43.592C266.426 45 266.042 46.8133 266.042 49.032V50.888C266.042 52.8507 266.426 54.536 267.194 55.944C267.962 57.352 269.007 58.44 270.33 59.208C271.695 59.9333 273.167 60.296 274.746 60.296C276.495 60.296 277.967 59.912 279.162 59.144C280.357 58.3333 281.253 57.2453 281.85 55.88H289.658C289.061 57.928 288.058 59.7627 286.65 61.384C285.285 62.9627 283.599 64.2213 281.594 65.16C279.589 66.0987 277.327 66.568 274.81 66.568Z" fill="white"/>
<path d="M293.882 66.568C292.517 66.568 291.365 66.12 290.426 65.224C289.53 64.328 289.082 63.2613 289.082 62.024C289.082 60.744 289.53 59.6773 290.426 58.824C291.365 57.928 292.517 57.48 293.882 57.48C295.247 57.48 296.378 57.928 297.274 58.824C298.17 59.6773 298.618 60.744 298.618 62.024C298.618 63.2613 298.17 64.328 297.274 65.224C296.378 66.12 295.247 66.568 293.882 66.568Z" fill="white"/>
</svg>
